<svg width="345" height="345" viewBox="0 0 345 345" fill="none" xmlns="http://www.w3.org/2000/svg">
<rect width="345" height="345" rx="172.5" fill="#FFCC00"/>
<path d="M59.1774 264.862C57.89 264.862 56.7456 264.669 55.7442 264.282C54.7572 263.896 53.9204 263.352 53.2337 262.652C52.5471 261.951 52.025 261.121 51.6673 260.162C51.324 259.204 51.1524 258.16 51.1524 257.03C51.1524 255.885 51.3455 254.841 51.7317 253.897C52.1322 252.939 52.7044 252.109 53.4483 251.408C54.1922 250.707 55.0719 250.163 56.0876 249.777C57.1175 249.391 58.2619 249.198 59.5207 249.198C60.3933 249.198 61.2016 249.305 61.9454 249.52C62.7036 249.734 63.383 250.027 63.9839 250.399C64.599 250.757 65.1282 251.165 65.5717 251.622L62.8252 254.541C62.5391 254.269 62.2315 254.033 61.9025 253.833C61.5735 253.618 61.2087 253.453 60.8082 253.339C60.4076 253.21 59.957 253.146 59.4564 253.146C58.9414 253.146 58.4693 253.246 58.0402 253.446C57.611 253.632 57.2391 253.897 56.9244 254.24C56.6097 254.584 56.3593 254.998 56.1734 255.485C56.0017 255.957 55.9159 256.472 55.9159 257.03C55.9159 257.588 56.0089 258.11 56.1948 258.596C56.3808 259.068 56.6383 259.476 56.9673 259.819C57.2963 260.162 57.6897 260.434 58.1475 260.635C58.6052 260.821 59.1059 260.913 59.6495 260.913C60.0214 260.913 60.3576 260.856 60.658 260.742C60.9727 260.613 61.2373 260.449 61.4519 260.248C61.6808 260.034 61.8596 259.783 61.9883 259.497C62.1171 259.197 62.1814 258.875 62.1814 258.532V257.909L62.7822 258.939H58.9628V255.678H66.3442C66.3585 255.835 66.3728 256.093 66.3871 256.45C66.4157 256.808 66.43 257.166 66.43 257.523C66.4443 257.867 66.4514 258.103 66.4514 258.231C66.4514 259.19 66.2726 260.077 65.915 260.892C65.5574 261.707 65.0496 262.408 64.3915 262.995C63.7478 263.581 62.9825 264.039 62.0956 264.368C61.2087 264.697 60.236 264.862 59.1774 264.862ZM75.7204 264.776C74.4186 264.776 73.2599 264.525 72.2443 264.025C71.2429 263.51 70.4562 262.809 69.884 261.922C69.3118 261.035 69.0257 260.019 69.0257 258.875V249.627H73.7034V258.682C73.7034 259.097 73.7892 259.469 73.9608 259.798C74.1325 260.112 74.3685 260.363 74.6689 260.549C74.9837 260.735 75.3341 260.828 75.7204 260.828C76.1352 260.828 76.5 260.735 76.8147 260.549C77.1294 260.363 77.3797 260.112 77.5657 259.798C77.7516 259.469 77.8446 259.097 77.8446 258.682V249.627H82.415V258.875C82.415 260.019 82.1289 261.035 81.5568 261.922C80.9846 262.809 80.1906 263.51 79.175 264.025C78.1736 264.525 77.0221 264.776 75.7204 264.776ZM85.7448 264.647V260.892H88.384V253.382H85.7448V249.627H95.6581V253.382H93.0188V260.892H95.6581V264.647H85.7448ZM98.9905 264.647V249.627H103.132L110.041 259.175L109.054 258.875C108.982 258.303 108.918 257.802 108.861 257.373C108.818 256.944 108.775 256.55 108.732 256.193C108.704 255.821 108.675 255.456 108.646 255.099C108.632 254.741 108.625 254.348 108.625 253.918C108.625 253.489 108.625 252.989 108.625 252.416V249.627H113.088V264.647H108.904L101.286 254.133L103.024 254.648C103.096 255.177 103.153 255.642 103.196 256.043C103.253 256.429 103.296 256.787 103.325 257.116C103.353 257.445 103.375 257.774 103.389 258.103C103.418 258.417 103.432 258.775 103.432 259.175C103.446 259.562 103.454 260.019 103.454 260.549V264.647H98.9905ZM123.911 264.862C122.709 264.862 121.6 264.669 120.585 264.282C119.583 263.896 118.711 263.36 117.967 262.673C117.237 261.972 116.672 261.142 116.272 260.184C115.871 259.226 115.671 258.174 115.671 257.03C115.671 255.885 115.871 254.834 116.272 253.875C116.687 252.917 117.266 252.095 118.01 251.408C118.754 250.707 119.634 250.163 120.649 249.777C121.679 249.391 122.809 249.198 124.039 249.198C124.74 249.198 125.427 249.284 126.099 249.455C126.786 249.613 127.43 249.863 128.031 250.206C128.646 250.535 129.204 250.957 129.704 251.472L126.936 254.712C126.736 254.469 126.493 254.247 126.207 254.047C125.935 253.847 125.613 253.69 125.241 253.575C124.883 253.446 124.469 253.382 123.997 253.382C123.51 253.382 123.045 253.468 122.602 253.639C122.173 253.797 121.794 254.033 121.465 254.348C121.15 254.662 120.9 255.048 120.714 255.506C120.528 255.964 120.435 256.493 120.435 257.094C120.435 257.638 120.528 258.131 120.714 258.575C120.9 259.018 121.164 259.397 121.507 259.712C121.851 260.027 122.266 260.27 122.752 260.441C123.238 260.613 123.782 260.699 124.383 260.699C124.812 260.699 125.22 260.635 125.606 260.506C125.992 260.377 126.343 260.213 126.657 260.012C126.972 259.798 127.244 259.562 127.473 259.304L129.683 262.78C129.311 263.181 128.817 263.538 128.202 263.853C127.587 264.168 126.908 264.418 126.164 264.604C125.42 264.776 124.669 264.862 123.911 264.862ZM140.606 264.647V249.627H145.241V264.647H140.606ZM131.658 264.647V249.627H136.293V264.647H131.658ZM133.397 259.175L133.418 255.141H143.224V259.175H133.397ZM155.926 264.862C154.739 264.862 153.652 264.669 152.665 264.282C151.678 263.896 150.819 263.352 150.09 262.652C149.36 261.951 148.795 261.121 148.395 260.162C148.008 259.204 147.815 258.16 147.815 257.03C147.815 255.885 148.008 254.841 148.395 253.897C148.795 252.939 149.36 252.109 150.09 251.408C150.819 250.707 151.678 250.163 152.665 249.777C153.652 249.391 154.732 249.198 155.905 249.198C157.092 249.198 158.172 249.391 159.145 249.777C160.132 250.163 160.99 250.707 161.72 251.408C162.449 252.109 163.007 252.939 163.393 253.897C163.794 254.841 163.994 255.878 163.994 257.008C163.994 258.153 163.794 259.204 163.393 260.162C163.007 261.121 162.449 261.951 161.72 262.652C160.99 263.352 160.132 263.896 159.145 264.282C158.172 264.669 157.099 264.862 155.926 264.862ZM155.905 260.57C156.391 260.57 156.834 260.484 157.235 260.313C157.65 260.141 158.007 259.898 158.308 259.583C158.623 259.254 158.859 258.875 159.016 258.446C159.188 258.017 159.273 257.545 159.273 257.03C159.273 256.515 159.188 256.043 159.016 255.614C158.859 255.184 158.623 254.812 158.308 254.498C158.007 254.169 157.65 253.918 157.235 253.747C156.834 253.575 156.391 253.489 155.905 253.489C155.418 253.489 154.968 253.575 154.553 253.747C154.152 253.918 153.795 254.169 153.48 254.498C153.18 254.812 152.943 255.184 152.772 255.614C152.614 256.043 152.536 256.515 152.536 257.03C152.536 257.545 152.614 258.017 152.772 258.446C152.943 258.875 153.18 259.254 153.48 259.583C153.795 259.898 154.152 260.141 154.553 260.313C154.968 260.484 155.418 260.57 155.905 260.57Z" fill="black"/>
<path d="M89.1118 247.529V181.672H109.434V247.529H89.1118ZM49.8795 247.529V181.672H70.2012V247.529H49.8795ZM57.5001 223.538L57.5942 205.851H100.59V223.538H57.5001ZM124.484 247.529V181.672H173.689V198.136H143.959V231.065H175.382V247.529H124.484ZM134.174 221.939V206.51H170.208V221.939H134.174ZM187.328 247.529V181.672H207.649V230.218H235.874V247.529H187.328ZM245.302 247.529V181.672H274.938C279.454 181.672 283.468 182.644 286.981 184.588C290.493 186.533 293.253 189.198 295.26 192.585C297.267 195.972 298.27 199.861 298.27 204.252C298.27 208.83 297.267 212.907 295.26 216.482C293.253 220.057 290.493 222.88 286.981 224.95C283.468 226.957 279.454 227.96 274.938 227.96H265.624V247.529H245.302ZM265.248 210.649H271.175C272.367 210.649 273.433 210.43 274.374 209.991C275.314 209.489 276.036 208.799 276.538 207.921C277.102 207.043 277.384 205.945 277.384 204.628C277.384 203.311 277.102 202.245 276.538 201.429C276.036 200.614 275.314 200.018 274.374 199.642C273.433 199.203 272.367 198.983 271.175 198.983H265.248V210.649Z" fill="black"/>
<g clip-path="url(#clip0_46_278)">
<path d="M265.867 132.464H176.418V158.931H217.135C218.066 148.276 226.937 139.991 237.433 139.674C248.384 139.348 258.014 147.799 259.001 158.931H265.644C266.96 158.931 268.029 157.871 268.029 156.566V134.608C268.029 133.423 267.062 132.464 265.867 132.464ZM192.356 147.251C192.356 147.904 191.825 148.431 191.166 148.431H186.24C185.582 148.431 185.05 147.904 185.05 147.251V143.094C185.05 142.441 185.582 141.914 186.24 141.914H191.166C191.825 141.914 192.356 142.441 192.356 143.094V147.251ZM209.398 147.251C209.398 147.904 208.867 148.431 208.209 148.431H203.282C202.624 148.431 202.092 147.904 202.092 147.251V143.094C202.092 142.441 202.624 141.914 203.282 141.914H208.209C208.867 141.914 209.398 142.441 209.398 143.094V147.251Z" fill="black"/>
<path d="M238.557 144.761C229.413 144.761 222 152.112 222 161.18C222 170.248 229.413 177.599 238.557 177.599C247.7 177.599 255.113 170.248 255.113 161.18C255.113 152.112 247.7 144.761 238.557 144.761ZM238.557 168.21C234.643 168.21 231.473 165.066 231.473 161.185C231.473 157.304 234.643 154.16 238.557 154.16C242.47 154.16 245.64 157.304 245.64 161.185C245.64 165.066 242.47 168.21 238.557 168.21Z" fill="black"/>
<path d="M249.888 105.39C244.511 105.39 240.156 109.713 240.156 115.04C240.156 120.368 244.516 124.691 249.888 124.691C255.26 124.691 259.619 120.368 259.619 115.04C259.619 109.713 255.26 105.39 249.888 105.39ZM249.888 119.173C247.589 119.173 245.726 117.325 245.726 115.045C245.726 112.766 247.589 110.918 249.888 110.918C252.186 110.918 254.05 112.766 254.05 115.045C254.05 117.325 252.186 119.173 249.888 119.173Z" fill="black"/>
<path d="M249.888 74.1176C244.511 74.1176 240.156 78.4409 240.156 83.7684C240.156 89.0959 244.516 93.4191 249.888 93.4191C255.26 93.4191 259.619 89.0959 259.619 83.7684C259.619 78.4409 255.265 74.1176 249.888 74.1176ZM249.888 87.9008C247.589 87.9008 245.726 86.053 245.726 83.7734C245.726 81.4938 247.589 79.646 249.888 79.646C252.186 79.646 254.05 81.4938 254.05 83.7734C254.05 86.053 252.186 87.9008 249.888 87.9008Z" fill="black"/>
<path d="M131.422 144.761C122.278 144.761 114.866 152.112 114.866 161.18C114.866 170.248 122.278 177.599 131.422 177.599C140.566 177.599 147.978 170.248 147.978 161.18C147.978 152.112 140.566 144.761 131.422 144.761ZM131.422 168.21C127.509 168.21 124.339 165.066 124.339 161.185C124.339 157.304 127.509 154.16 131.422 154.16C135.336 154.16 138.506 157.304 138.506 161.185C138.506 165.066 135.336 168.21 131.422 168.21Z" fill="black"/>
<path d="M42.3529 183.529V177.173H294.706V183.529H42.3529Z" fill="black"/>
<path d="M173.339 163.876H180.868C181.157 165.609 181.83 168.17 183.516 170.826C186.802 175.998 191.733 178.031 193.551 178.679C189.06 178.448 184.569 178.222 180.078 177.991C180.458 177.564 180.838 177.137 181.217 176.716C179.81 175.797 177.131 173.768 175.248 170.198C173.932 167.698 173.496 165.383 173.344 163.881L173.339 163.876Z" fill="black"/>
<path d="M211.52 163.876H219.049C219.337 165.609 220.011 168.17 221.697 170.826C224.982 175.998 229.914 178.031 231.732 178.679C227.241 178.448 222.75 178.222 218.259 177.991C218.638 177.564 219.018 177.137 219.398 176.716C217.99 175.797 215.312 173.768 213.429 170.198C212.112 167.698 211.677 165.383 211.525 163.881L211.52 163.876Z" fill="black"/>
<path d="M199.718 163.726C200.872 164.67 201.611 166.106 201.611 167.708C201.611 170.555 199.282 172.864 196.412 172.864C193.541 172.864 191.212 170.555 191.212 167.708C191.212 166.106 191.951 164.675 193.106 163.726H184.934C184.493 164.971 184.25 166.312 184.25 167.708C184.25 174.366 189.693 179.769 196.412 179.769C203.13 179.769 208.573 174.371 208.573 167.708C208.573 166.312 208.33 164.971 207.89 163.726H199.718Z" fill="black"/>
<path d="M62.9192 163.876H70.448C70.7366 165.609 71.4099 168.17 73.0959 170.826C76.3819 175.998 81.3133 178.031 83.1309 178.679C78.64 178.448 74.1491 178.222 69.6581 177.991C70.0378 177.564 70.4176 177.137 70.7973 176.716C69.3898 175.797 66.7114 173.768 64.828 170.198C63.5116 167.698 63.0761 165.383 62.9243 163.881L62.9192 163.876Z" fill="black"/>
<path d="M104.76 163.876H112.289C112.578 165.609 113.251 168.17 114.937 170.826C118.223 175.998 123.154 178.031 124.972 178.679C120.481 178.448 115.99 178.222 111.499 177.991C111.879 177.564 112.259 177.137 112.638 176.716C111.231 175.797 108.552 173.768 106.669 170.198C105.353 167.698 104.917 165.383 104.765 163.881L104.76 163.876Z" fill="black"/>
<path d="M89.3026 163.726C90.457 164.67 91.1962 166.106 91.1962 167.708C91.1962 170.555 88.8672 172.864 85.9964 172.864C83.1257 172.864 80.7967 170.555 80.7967 167.708C80.7967 166.106 81.5359 164.675 82.6902 163.726H74.5185C74.078 164.971 73.835 166.312 73.835 167.708C73.835 174.366 79.2777 179.769 85.9964 179.769C92.7151 179.769 98.1579 174.371 98.1579 167.708C98.1579 166.312 97.9149 164.971 97.4744 163.726H89.3026Z" fill="black"/>
<path d="M54.0334 157.605C54.0334 158.338 54.6308 158.931 55.37 158.931H109.651C110.39 158.931 110.988 158.338 110.988 157.605V151.946C110.988 151.213 110.39 150.621 109.651 150.621C93.1354 151.976 75.8602 151.986 57.9522 150.199C56.813 150.083 55.6789 149.963 54.5448 149.837C54.3321 150.681 54.1498 151.635 54.0334 152.684C53.8207 154.567 53.8815 156.239 54.0334 157.595V157.605Z" fill="black"/>
<path d="M170.22 90.5068C169.861 90.065 169.425 89.8039 169.096 89.6532H102.512C102.137 89.593 100.32 89.3419 98.649 90.5319C97.4997 91.3504 97.0136 92.4801 96.7757 93.0676C95.0441 97.3808 93.5657 104.335 92.6341 108.227C92.1936 110.069 91.7582 111.706 90.3253 113.057C88.8115 114.483 86.9786 114.824 86.2394 114.965C74.1894 117.255 65.3645 118.927 62.3975 123.863C61.9671 124.576 61.39 125.806 61.2786 127.699C61.2786 133.845 61.2786 139.991 61.2786 146.142C77.5158 146.192 93.753 146.247 109.99 146.297C110.527 146.312 111.281 146.272 112.122 146.006C113.757 145.489 114.75 144.434 115.17 143.922C116.167 142.707 122.172 135.637 130.845 135.748C140.758 135.873 150.53 145.348 151.755 158.825H170.889C170.762 121.934 170.711 95.3924 170.889 93.3488C170.914 93.0425 171.096 91.5914 170.22 90.5118V90.5068ZM90.2443 140.839H68.2251V136.074H90.2443V140.839ZM90.2443 130.847H68.2251V126.082H90.2443V130.847ZM104.036 140.839C101.348 140.839 99.1705 139.047 99.1705 136.837C99.1705 134.628 101.348 132.835 104.036 132.835C106.725 132.835 108.902 134.628 108.902 136.837C108.902 139.047 106.725 140.839 104.036 140.839ZM108.512 121.297C105.003 122.597 102.077 124.124 99.7578 125.54C98.8313 125.896 97.8237 125.836 97.2617 125.309C96.4364 124.53 96.4769 122.658 97.9604 121.437C100.396 120.323 103.859 119.052 108.157 118.41C113.079 117.671 117.241 118.028 120.086 118.5C116.927 118.882 112.927 119.66 108.512 121.297ZM130.526 113.434C130.283 113.639 129.959 113.87 129.544 114.071C128.774 114.443 128.06 114.523 127.61 114.538L98.5325 113.971C100.462 108.603 102.396 103.231 104.325 97.8629C104.375 97.7574 104.573 97.3658 105.039 97.1499C105.469 96.954 105.859 97.0243 105.98 97.0494H136.394C134.44 102.507 132.48 107.971 130.526 113.429V113.434ZM163.588 126.489C163.588 127.292 162.93 127.94 162.125 127.94H157.77C156.96 127.94 156.307 127.287 156.307 126.489V124.781C156.307 123.973 156.97 123.32 157.786 123.33L163.593 123.386V126.489H163.588ZM164.251 114.242H140.065L144.804 99.4897C145.28 98.0085 146.667 97.0093 148.232 97.0143L164.246 97.0796V114.242H164.251Z" fill="black"/>
<path d="M145.214 84.8329V81.4134C145.214 78.9832 147.199 77.0149 149.649 77.0149H179.526C181.309 77.0149 182.752 78.4509 182.752 80.2184V88.3477C187.106 101.925 191.46 115.502 195.814 129.08H178.959C177.557 129.08 176.418 127.95 176.418 126.559V84.8329H145.214Z" fill="black"/>
<path d="M191.1 101.759C192.417 104.375 193.738 106.996 195.055 109.612C208.138 103.918 221.216 98.2244 234.298 92.5354L198.756 123.365C199.606 125.429 201.394 128.989 204.123 129.24C205.353 129.356 206.335 128.753 206.679 128.542C211.616 125.535 241.731 94.6141 245.635 90.6022C246.151 91.4056 246.662 92.214 247.179 93.0174L247.437 106.027C249.113 106.037 250.789 106.042 252.465 106.052C252.475 101.498 252.48 96.949 252.49 92.3948L241.296 82.3273C224.562 88.8046 207.829 95.282 191.1 101.759Z" fill="black"/>
<path d="M115.19 87.9058C117.928 87.9058 120.147 86.0894 120.147 83.8487C120.147 81.608 117.928 79.7916 115.19 79.7916C112.453 79.7916 110.233 81.608 110.233 83.8487C110.233 86.0894 112.453 87.9058 115.19 87.9058Z" fill="black"/>
<path d="M129.954 87.9058C132.692 87.9058 134.911 86.0894 134.911 83.8487C134.911 81.608 132.692 79.7916 129.954 79.7916C127.217 79.7916 124.997 81.608 124.997 83.8487C124.997 86.0894 127.217 87.9058 129.954 87.9058Z" fill="black"/>
</g>
<defs>
<clipPath id="clip0_46_278">
<rect width="252.353" height="109.412" fill="white" transform="translate(42.3529 74.1176)"/>
</clipPath>
</defs>
</svg>
